<?xml version="1.0" encoding="UTF-8"?>
<svg width="14px" height="11px" viewBox="0 0 14 11" version="1.1" xmlns="http://www.w3.org/2000/svg" xmlns:xlink="http://www.w3.org/1999/xlink">
    <!-- Generator: Sketch 45.2 (43514) - http://www.bohemiancoding.com/sketch -->
    <title>↩</title>
    <desc>Created with Sketch.</desc>
    <defs></defs>
    <g id="1.-Studio-Home" stroke="none" stroke-width="1" fill="none" fill-rule="evenodd">
        <g id="1.1-Index" transform="translate(-148.000000, -837.000000)" fill="#EF303B">
            <path d="M148.539062,844.21875 L151.914062,840.84375 L151.914062,843.640625 L157.789062,843.640625 C158.486983,843.640625 159.079425,843.395836 159.566406,842.90625 C160.053388,842.416664 160.296875,841.825524 160.296875,841.132812 C160.296875,840.440101 160.053388,839.848961 159.566406,839.359375 C159.079425,838.869789 158.486983,838.625 157.789062,838.625 L157.601562,838.625 L157.601562,837.46875 L157.789062,837.46875 C158.804693,837.46875 159.669267,837.826819 160.382812,838.542969 C161.096358,839.259118 161.453125,840.122391 161.453125,841.132812 C161.453125,842.143234 161.096358,843.006507 160.382812,843.722656 C159.669267,844.438806 158.804693,844.796875 157.789062,844.796875 L151.914062,844.796875 L151.914062,847.59375 L148.539062,844.21875 Z" id="↩"></path>
        </g>
    </g>
</svg>